<?xml version="1.0" encoding="UTF-8" standalone="no"?>
<svg xmlns="http://www.w3.org/2000/svg" width="491" height="481" viewBox="0 0 491 481">
  <path d="M 229 455 L 227 457 L 227 467 L 229 470 L 237 470 L 239 468 L 239 457 L 238 455 Z M 231 458 L 236 459 L 237 464 L 236 467 L 231 467 L 230 466 L 230 459 Z M 245 454 L 244 456 L 246 459 L 246 468 L 248 469 L 249 468 L 248 467 L 248 455 Z M 272 453 L 273 467 L 275 467 L 275 456 L 274 453 Z M 256 453 L 254 455 L 255 467 L 256 468 L 264 468 L 266 466 L 265 454 L 264 453 Z M 258 456 L 263 457 L 263 463 L 264 464 L 262 466 L 257 465 L 257 457 Z M 283 452 L 282 453 L 282 462 L 283 467 L 285 467 L 285 453 Z M 292 452 L 291 453 L 291 463 L 293 466 L 301 466 L 303 464 L 303 454 L 301 451 Z M 295 454 L 300 455 L 300 463 L 299 464 L 294 463 L 294 455 Z M 125 330 L 124 336 L 128 340 L 135 339 L 138 334 L 148 334 L 150 333 L 153 335 L 156 335 L 158 337 L 160 354 L 188 379 L 187 384 L 190 388 L 196 389 L 200 386 L 201 381 L 197 376 L 189 376 L 163 353 L 160 336 L 165 332 L 167 327 L 166 323 L 163 319 L 158 317 L 153 318 L 148 324 L 148 330 L 147 331 L 138 332 L 133 327 L 129 327 Z M 193 378 L 195 378 L 198 381 L 196 386 L 192 386 L 190 384 L 190 381 Z M 131 329 L 134 331 L 135 334 L 133 337 L 130 338 L 127 336 L 127 332 Z M 156 320 L 161 321 L 164 325 L 163 330 L 159 333 L 155 333 L 151 329 L 151 324 Z M 169 279 L 163 293 L 170 304 L 184 304 L 186 303 L 192 290 L 184 278 Z M 172 281 L 182 281 L 188 289 L 188 292 L 183 301 L 173 302 L 166 292 Z M 400 275 L 395 275 L 392 277 L 391 284 L 396 289 L 395 293 L 359 330 L 359 339 L 338 361 L 333 360 L 329 363 L 329 370 L 331 372 L 338 373 L 341 370 L 342 367 L 341 363 L 359 344 L 360 345 L 360 356 L 356 360 L 356 365 L 360 369 L 365 369 L 369 365 L 368 359 L 363 355 L 362 331 L 398 294 L 398 289 L 404 283 L 404 280 Z M 336 362 L 339 365 L 339 368 L 335 371 L 331 368 L 331 365 Z M 361 359 L 364 359 L 366 361 L 366 365 L 363 367 L 359 365 L 359 361 Z M 399 278 L 401 280 L 401 283 L 397 286 L 394 284 L 393 281 L 396 278 Z M 326 254 L 321 265 L 321 268 L 328 279 L 343 278 L 349 267 L 349 264 L 342 253 Z M 329 256 L 340 256 L 345 263 L 346 266 L 340 276 L 330 276 L 325 269 L 324 266 Z M 192 223 L 186 226 L 178 235 L 176 242 L 177 250 L 180 256 L 186 262 L 193 265 L 204 265 L 212 261 L 217 256 L 220 249 L 220 240 L 216 231 L 209 225 L 199 222 Z M 185 237 L 187 235 L 188 236 L 187 238 L 188 246 L 194 252 L 202 253 L 206 251 L 210 247 L 212 242 L 213 243 L 213 248 L 211 252 L 205 257 L 195 258 L 189 255 L 184 248 L 183 242 Z M 202 231 L 206 234 L 206 238 L 203 241 L 199 240 L 197 237 L 197 235 Z M 298 210 L 289 214 L 283 220 L 280 228 L 280 235 L 284 244 L 291 250 L 297 252 L 307 252 L 314 249 L 320 244 L 324 237 L 325 228 L 322 220 L 316 214 L 307 210 Z M 317 227 L 317 234 L 315 238 L 308 244 L 304 245 L 296 244 L 288 236 L 289 231 L 294 238 L 299 240 L 304 240 L 312 234 L 313 224 L 314 223 Z M 312 222 L 313 221 L 314 223 L 313 224 Z M 297 219 L 301 220 L 303 223 L 303 225 L 300 229 L 297 229 L 293 225 L 294 221 Z M 41 197 L 42 198 L 42 207 L 51 207 L 52 206 L 51 197 Z M 296 181 L 291 187 L 291 192 L 293 196 L 298 199 L 305 198 L 308 195 L 310 190 L 328 189 L 350 209 L 352 239 L 381 265 L 381 276 L 351 308 L 346 307 L 342 310 L 341 312 L 342 317 L 345 320 L 351 320 L 354 316 L 353 310 L 384 277 L 383 262 L 354 236 L 353 210 L 352 207 L 343 198 L 329 186 L 310 187 L 304 181 L 301 180 Z M 346 310 L 350 310 L 352 313 L 351 316 L 348 318 L 344 315 L 344 312 Z M 298 183 L 302 183 L 307 189 L 306 193 L 302 196 L 298 196 L 294 192 L 294 187 Z M 391 173 L 389 177 L 390 182 L 395 185 L 399 184 L 402 181 L 401 174 L 398 172 Z M 395 174 L 398 175 L 400 178 L 397 182 L 394 182 L 392 180 L 392 177 Z M 24 165 L 24 177 L 37 177 L 36 165 Z M 10 138 L 10 152 L 23 152 L 23 138 Z M 202 139 L 199 136 L 192 136 L 187 142 L 166 143 L 139 176 L 115 207 L 109 207 L 106 210 L 105 213 L 106 217 L 111 220 L 114 220 L 118 217 L 119 215 L 118 208 L 167 146 L 189 144 L 191 147 L 197 149 L 202 145 Z M 111 209 L 116 211 L 116 215 L 114 217 L 110 217 L 108 214 L 108 212 Z M 194 138 L 197 138 L 200 142 L 197 146 L 194 146 L 192 144 L 192 140 Z M 113 131 L 99 132 L 94 143 L 94 146 L 101 156 L 116 154 L 121 142 Z M 102 134 L 111 134 L 116 140 L 117 145 L 113 152 L 103 153 L 98 147 L 97 143 Z M 298 128 L 295 132 L 295 136 L 298 140 L 301 141 L 303 169 L 304 170 L 319 170 L 320 169 L 337 169 L 338 168 L 346 174 L 365 192 L 365 206 L 366 207 L 366 220 L 367 222 L 394 246 L 393 247 L 393 252 L 395 255 L 397 256 L 403 255 L 406 251 L 405 245 L 402 243 L 395 243 L 369 219 L 367 189 L 341 166 L 309 167 L 308 168 L 306 167 L 304 141 L 308 137 L 308 131 L 305 128 L 302 127 Z M 399 245 L 403 247 L 403 251 L 401 253 L 398 253 L 395 250 L 396 247 Z M 301 130 L 303 130 L 306 133 L 306 135 L 303 138 L 300 138 L 298 136 L 298 132 Z M 379 98 L 365 99 L 362 104 L 359 112 L 367 123 L 368 122 L 380 122 L 386 111 L 385 107 Z M 368 101 L 377 101 L 383 109 L 383 111 L 378 119 L 368 120 L 362 111 L 363 108 Z M 478 94 L 475 96 L 465 109 L 449 126 L 449 128 L 459 131 L 454 146 L 448 157 L 450 159 L 480 126 L 479 123 L 470 121 L 471 115 L 479 96 Z M 458 143 L 459 142 L 460 143 L 459 144 Z M 469 109 L 470 111 L 465 123 L 473 125 L 475 127 L 460 143 L 459 140 L 464 129 L 460 127 L 456 127 L 455 125 Z M 61 83 L 55 86 L 52 89 L 48 99 L 49 116 L 58 142 L 70 165 L 83 184 L 96 196 L 107 200 L 113 199 L 118 196 L 125 187 L 127 183 L 127 179 L 125 174 L 136 167 L 135 159 L 146 154 L 148 150 L 148 144 L 146 138 L 137 126 L 128 117 L 99 95 L 77 84 Z M 60 92 L 65 90 L 73 91 L 94 101 L 111 113 L 124 124 L 140 143 L 140 148 L 139 149 L 129 150 L 125 153 L 125 157 L 128 161 L 128 163 L 121 167 L 117 171 L 119 182 L 111 191 L 106 192 L 98 188 L 89 179 L 74 157 L 63 135 L 56 112 L 56 98 Z M 39 72 L 38 79 L 43 83 L 48 82 L 52 77 L 59 77 L 60 76 L 83 75 L 91 79 L 113 93 L 151 129 L 150 130 L 150 135 L 152 138 L 160 139 L 162 137 L 163 130 L 161 127 L 153 126 L 150 124 L 118 93 L 85 72 L 66 73 L 65 74 L 51 74 L 47 70 L 41 70 Z M 155 129 L 160 130 L 161 133 L 159 136 L 155 136 L 153 134 L 153 131 Z M 44 72 L 48 74 L 48 78 L 46 80 L 43 80 L 41 78 L 41 74 Z M 406 45 L 399 45 L 393 47 L 381 55 L 362 74 L 353 85 L 341 102 L 334 116 L 333 122 L 335 129 L 342 133 L 346 132 L 348 140 L 359 143 L 360 144 L 359 149 L 361 153 L 370 162 L 378 166 L 382 166 L 389 163 L 399 151 L 409 129 L 418 98 L 420 81 L 421 80 L 420 59 L 416 51 L 413 48 Z M 406 53 L 411 57 L 413 62 L 413 83 L 408 107 L 400 131 L 393 146 L 384 157 L 379 158 L 367 147 L 369 142 L 369 138 L 365 135 L 358 135 L 355 133 L 358 129 L 358 124 L 357 123 L 352 123 L 348 125 L 342 125 L 341 124 L 341 119 L 348 105 L 367 80 L 390 58 L 399 53 Z M 424 11 L 421 10 L 407 10 L 400 12 L 386 19 L 365 34 L 327 69 L 313 85 L 297 108 L 283 107 L 282 106 L 240 106 L 239 107 L 231 107 L 230 108 L 224 108 L 223 109 L 217 109 L 201 112 L 177 119 L 174 115 L 155 99 L 128 80 L 108 68 L 78 54 L 65 50 L 48 49 L 41 51 L 34 55 L 30 59 L 26 66 L 23 78 L 24 105 L 29 126 L 44 167 L 52 184 L 60 183 L 62 185 L 62 193 L 59 195 L 68 209 L 91 233 L 104 242 L 104 245 L 92 274 L 92 280 L 95 282 L 100 283 L 81 304 L 82 309 L 93 313 L 93 315 L 86 322 L 83 327 L 96 346 L 112 363 L 113 387 L 154 415 L 216 460 L 218 459 L 217 456 L 117 386 L 115 381 L 115 368 L 116 367 L 145 391 L 168 407 L 199 426 L 226 446 L 235 447 L 236 446 L 271 445 L 272 444 L 286 444 L 287 443 L 305 442 L 324 425 L 355 401 L 384 376 L 400 360 L 410 348 L 412 354 L 412 368 L 312 453 L 313 456 L 415 370 L 414 343 L 430 323 L 439 308 L 438 305 L 429 296 L 432 293 L 442 288 L 445 285 L 445 283 L 423 263 L 429 261 L 431 257 L 415 224 L 405 207 L 405 205 L 411 199 L 422 183 L 432 161 L 437 141 L 437 137 L 420 137 L 419 136 L 419 129 L 420 128 L 440 128 L 441 127 L 443 109 L 431 109 L 429 110 L 427 108 L 427 102 L 428 101 L 461 101 L 461 87 L 448 87 L 447 86 L 448 85 L 448 56 L 443 33 L 435 19 Z M 240 390 L 241 388 L 251 385 L 263 378 L 275 382 L 286 383 L 291 385 L 281 393 L 270 397 L 256 397 L 244 393 Z M 246 347 L 250 347 L 252 350 L 251 354 L 248 356 L 244 356 L 240 353 Z M 269 348 L 271 345 L 275 345 L 280 348 L 281 350 L 277 354 L 272 354 L 269 351 Z M 251 331 L 255 327 L 263 327 L 264 326 L 278 326 L 281 329 L 279 332 L 276 333 L 265 333 L 264 334 L 255 334 Z M 390 321 L 393 321 L 396 324 L 395 327 L 392 329 L 388 326 L 388 323 Z M 121 308 L 126 311 L 124 316 L 120 316 L 118 314 L 118 311 Z M 125 251 L 128 252 L 130 255 L 130 257 L 127 260 L 123 259 L 121 256 L 122 253 Z M 200 169 L 202 171 L 203 195 L 204 196 L 197 198 L 177 199 L 175 197 L 174 172 L 175 171 Z M 212 126 L 214 126 L 217 129 L 217 131 L 214 134 L 212 134 L 209 131 L 209 129 Z M 231 116 L 238 116 L 239 115 L 249 115 L 250 116 L 251 151 L 252 152 L 255 201 L 256 202 L 259 229 L 264 246 L 272 259 L 308 297 L 315 307 L 321 320 L 323 330 L 323 343 L 320 356 L 316 364 L 308 372 L 302 375 L 284 376 L 269 372 L 266 369 L 282 358 L 286 353 L 291 340 L 290 327 L 285 321 L 280 319 L 261 318 L 260 319 L 245 320 L 234 324 L 229 329 L 227 339 L 229 347 L 232 353 L 237 359 L 244 364 L 250 367 L 258 369 L 258 371 L 255 374 L 245 379 L 234 382 L 223 381 L 215 377 L 207 368 L 201 354 L 199 344 L 199 331 L 203 316 L 213 297 L 235 265 L 239 257 L 242 245 L 241 200 L 240 199 L 240 190 L 239 189 L 239 180 L 238 179 L 235 146 L 234 145 L 231 119 L 230 118 Z M 281 115 L 282 116 L 282 126 L 283 127 L 286 165 L 263 191 L 262 190 L 261 179 L 277 161 L 275 145 L 271 141 L 271 130 L 270 129 L 269 115 L 270 114 Z M 259 114 L 265 114 L 267 116 L 268 142 L 271 151 L 273 153 L 273 158 L 274 159 L 271 164 L 262 173 L 260 168 L 260 155 L 259 154 L 259 135 L 258 134 L 258 115 Z M 323 104 L 326 105 L 328 108 L 326 112 L 322 112 L 320 110 L 320 107 Z M 350 65 L 355 68 L 355 71 L 353 73 L 349 73 L 347 71 L 347 68 Z M 345 64 L 346 63 L 347 64 L 346 65 Z M 420 19 L 424 21 L 430 27 L 437 43 L 439 53 L 439 63 L 440 64 L 438 90 L 457 90 L 458 91 L 458 97 L 457 98 L 424 98 L 424 111 L 425 112 L 433 112 L 434 114 L 432 124 L 430 126 L 416 126 L 416 139 L 417 140 L 418 139 L 426 139 L 428 141 L 421 165 L 414 179 L 401 196 L 398 194 L 395 189 L 390 190 L 388 194 L 404 222 L 405 226 L 407 228 L 419 252 L 418 254 L 412 255 L 409 258 L 409 261 L 416 269 L 432 283 L 418 291 L 416 294 L 417 298 L 428 308 L 428 310 L 422 319 L 418 322 L 399 323 L 393 318 L 388 319 L 385 323 L 386 329 L 389 331 L 394 331 L 401 325 L 415 325 L 416 327 L 395 352 L 367 379 L 323 414 L 303 432 L 299 434 L 231 438 L 144 379 L 126 364 L 105 343 L 95 330 L 94 327 L 107 313 L 107 310 L 105 307 L 96 305 L 94 303 L 106 290 L 115 278 L 115 274 L 113 272 L 109 271 L 104 273 L 103 270 L 116 238 L 118 228 L 116 226 L 111 226 L 107 233 L 98 227 L 83 213 L 72 199 L 71 196 L 75 194 L 74 193 L 74 182 L 62 182 L 60 180 L 48 154 L 35 115 L 32 100 L 32 92 L 31 91 L 32 76 L 36 66 L 42 60 L 47 58 L 60 58 L 80 64 L 108 78 L 136 96 L 157 112 L 174 129 L 209 119 L 214 119 L 221 117 L 223 119 L 227 151 L 228 152 L 228 160 L 230 169 L 229 170 L 217 161 L 215 137 L 220 131 L 219 127 L 216 124 L 212 123 L 207 127 L 207 133 L 213 139 L 213 150 L 214 151 L 215 164 L 225 171 L 231 177 L 231 187 L 232 188 L 233 207 L 234 208 L 231 209 L 218 198 L 210 196 L 210 193 L 217 191 L 217 189 L 210 189 L 209 188 L 209 185 L 211 183 L 216 183 L 216 180 L 210 180 L 208 176 L 216 174 L 216 172 L 215 171 L 209 172 L 207 164 L 201 162 L 200 156 L 198 156 L 198 162 L 196 164 L 194 164 L 192 162 L 192 157 L 189 157 L 190 160 L 189 164 L 185 164 L 184 163 L 184 158 L 181 157 L 181 164 L 180 165 L 177 165 L 175 161 L 175 158 L 173 158 L 172 159 L 173 164 L 171 166 L 167 167 L 167 173 L 168 174 L 166 176 L 160 176 L 161 179 L 166 178 L 168 180 L 168 183 L 167 184 L 155 184 L 153 185 L 136 207 L 139 237 L 129 249 L 123 249 L 119 253 L 119 258 L 123 262 L 129 262 L 132 259 L 131 251 L 141 240 L 139 208 L 156 187 L 168 187 L 169 191 L 166 193 L 162 193 L 162 196 L 167 195 L 169 197 L 169 200 L 150 222 L 152 232 L 155 269 L 129 300 L 123 306 L 117 307 L 115 311 L 115 314 L 120 319 L 124 319 L 127 317 L 128 310 L 126 307 L 158 270 L 153 223 L 162 212 L 169 205 L 174 205 L 176 207 L 176 212 L 179 212 L 179 206 L 183 205 L 184 206 L 184 211 L 187 212 L 187 205 L 188 204 L 191 204 L 193 211 L 195 211 L 196 210 L 195 205 L 199 203 L 201 205 L 201 210 L 204 210 L 204 204 L 205 203 L 209 203 L 212 199 L 217 201 L 234 215 L 234 225 L 235 226 L 234 246 L 232 253 L 227 263 L 208 290 L 196 312 L 191 331 L 191 344 L 192 345 L 193 355 L 199 370 L 203 376 L 212 384 L 220 388 L 227 389 L 236 397 L 245 402 L 256 405 L 269 405 L 278 403 L 291 396 L 303 382 L 313 378 L 321 370 L 328 357 L 330 348 L 330 340 L 331 339 L 329 319 L 323 305 L 310 287 L 276 251 L 271 242 L 267 228 L 263 196 L 280 177 L 289 165 L 288 163 L 287 141 L 286 140 L 286 130 L 285 129 L 285 118 L 284 117 L 285 116 L 290 116 L 291 117 L 302 118 L 323 87 L 345 64 L 346 65 L 345 67 L 346 74 L 337 85 L 328 99 L 325 102 L 321 102 L 317 107 L 317 110 L 321 115 L 328 114 L 330 111 L 330 106 L 328 103 L 345 79 L 348 76 L 353 76 L 357 72 L 357 67 L 355 64 L 353 63 L 347 64 L 346 63 L 378 35 L 395 24 L 407 19 L 412 18 Z" fill="#e2e8f0" fill-rule="evenodd"/>
</svg>
